<?xml version="1.0" standalone="no"?>
<!DOCTYPE svg PUBLIC "-//W3C//DTD SVG 20010904//EN"
 "http://www.w3.org/TR/2001/REC-SVG-20010904/DTD/svg10.dtd">
<svg version="1.0" xmlns="http://www.w3.org/2000/svg"
 width="512.000000pt" height="512.000000pt" viewBox="0 0 512.000000 512.000000"
 preserveAspectRatio="xMidYMid meet">
<metadata>
Created by potrace 1.14, written by Peter Selinger 2001-2017
</metadata>
<g transform="translate(0.000000,512.000000) scale(0.100000,-0.100000)"
fill="#000000" stroke="none">
<path d="M0 2560 l0 -2560 2560 0 2560 0 0 2560 0 2560 -2560 0 -2560 0 0
-2560z m3029 1865 c61 -161 18 -364 -116 -554 -61 -87 -225 -255 -338 -346
-128 -103 -244 -229 -287 -311 -93 -176 -69 -333 83 -556 111 -162 168 -252
163 -257 -2 -3 -66 56 -140 129 -314 312 -407 504 -335 693 38 100 171 236
431 442 310 246 429 387 475 566 18 68 23 194 11 269 l-7 45 19 -30 c10 -17
29 -57 41 -90z m380 -699 c-3 -3 -61 -40 -129 -83 -255 -160 -411 -296 -465
-407 -57 -117 -35 -203 101 -391 101 -141 117 -233 59 -352 -29 -58 -114 -149
-190 -203 l-49 -34 22 36 c43 69 56 102 60 154 6 74 -18 137 -88 224 -115 144
-166 272 -158 397 15 237 262 452 701 614 135 50 144 52 136 45z m416 -1357
c92 -28 166 -100 190 -184 60 -203 -125 -405 -483 -529 -57 -20 -107 -36 -110
-36 -4 0 42 30 101 66 332 204 439 446 264 601 -27 23 -66 46 -92 53 -44 12
-138 10 -180 -5 -16 -6 -15 -4 4 11 60 44 203 55 306 23z m-1883 -48 c-107
-33 -241 -98 -257 -124 -45 -79 324 -117 865 -87 277 15 680 59 798 86 15 4 0
-8 -33 -26 -33 -18 -65 -36 -71 -41 -29 -23 -347 -78 -584 -101 -202 -19 -750
-16 -920 5 -203 26 -340 69 -340 107 0 62 409 206 590 208 41 1 38 -1 -48 -27z
m-53 -461 c-19 -25 -21 -33 -11 -55 27 -58 165 -79 527 -79 252 -1 311 4 558
46 l128 21 44 -32 c24 -17 59 -38 77 -46 39 -16 41 -15 -107 -49 -260 -60
-427 -78 -710 -78 -242 0 -382 16 -514 57 -192 62 -209 127 -52 208 41 20 76
37 78 37 2 0 -6 -13 -18 -30z m103 -422 c-19 -19 -14 -46 12 -63 51 -34 180
-48 436 -49 214 -1 263 2 385 23 l140 23 105 -50 c81 -40 100 -53 85 -58 -11
-4 -35 -13 -54 -21 -57 -22 -220 -64 -310 -79 -210 -35 -526 -27 -701 17 -96
24 -213 81 -235 115 -32 49 5 99 100 137 49 20 52 20 37 5z m-317 -277 c13 -5
-1 -10 -46 -14 -86 -8 -227 -60 -275 -101 -35 -30 -37 -35 -24 -51 79 -96 566
-154 1205 -142 533 10 887 47 1125 117 109 33 166 85 146 136 -6 15 -4 15 16
2 16 -11 23 -25 23 -49 0 -27 -8 -39 -42 -65 -82 -63 -289 -129 -524 -168
-591 -99 -1175 -100 -1856 -5 -224 31 -283 46 -320 81 -32 30 -29 55 13 95
106 99 458 203 559 164z m2332 -295 c-106 -162 -473 -261 -1097 -297 -355 -20
-839 0 -1090 46 -88 17 -162 36 -157 41 1 2 59 -3 127 -11 69 -8 238 -20 377
-26 274 -14 616 -4 908 26 401 41 759 132 900 228 45 30 55 28 32 -7z"/>
</g>
</svg>
